<svg version="1" viewBox="0 0 512 512" xmlns="http://www.w3.org/2000/svg"><defs><linearGradient id="a" x1="194.59" x2="313.27" y1="356.76" y2="238.08" gradientUnits="userSpaceOnUse"><stop stop-color="#249eff" offset="0"/><stop stop-color="#2777ff" offset="1"/></linearGradient><filter id="d" x="-.023842" y="-.046403" width="1.0477" height="1.0928" style="color-interpolation-filters:sRGB"><feGaussianBlur stdDeviation="3.6105273"/></filter><filter id="c" x="-.023216" y="-.045185" width="1.0464" height="1.0904" style="color-interpolation-filters:sRGB"><feGaussianBlur stdDeviation="3.5155827"/></filter><filter id="b" x="-.024939" y="-.033786" width="1.0499" height="1.0676" style="color-interpolation-filters:sRGB"><feGaussianBlur stdDeviation="4.2378156"/></filter></defs><g transform="translate(-13.327 -2.41)" stroke-width=".80766"><circle cx="270.54" cy="258.41" r="181.72" fill="url(#a)" style="fill:url(#a)"/><path d="m452.08 253.39a181.72 181.72 0 0 1-181.54 178.17 181.72 181.72 0 0 1-181.54-176.71 181.72 181.72 0 0 0-0.17734 3.555 181.72 181.72 0 0 0 181.72 181.72 181.72 181.72 0 0 0 181.72-181.72 181.72 181.72 0 0 0-0.17733-5.0189z" opacity=".3" style="filter:url(#d)"/><path d="m265.53 75.69a181.72 181.72 0 0 0-181.72 181.72 181.72 181.72 0 0 0 0.17734 5.0105 181.72 181.72 0 0 1 181.54-178.16 181.72 181.72 0 0 1 181.54 176.7 181.72 181.72 0 0 0 0.17733-3.5467 181.72 181.72 0 0 0-181.72-181.72z" fill="#fff" opacity=".1" style="filter:url(#c);mix-blend-mode:normal;opacity:.25861"/></g><g transform="translate(-272)" fill-rule="evenodd" stroke-width="1.25"><path d="m512 386c0 66.275-53.725 120-120 120s-120-53.725-120-120 53.725-120 120-120 120 53.725 120 120z" opacity=".3" style="opacity:.1"/><path d="m512 382c0 66.275-53.725 120-120 120s-120-53.725-120-120 53.725-120 120-120 120 53.725 120 120z" fill="#47b49f"/></g><path d="m122.44 309.36c-3.6942-2e-3 -7.66 0.0882-11.676 0.17028-2.2401 0.0445-4.7273 2.5444-4.7215 4.7866 0.0151 5.9441 0.29677 18.823 0.29677 18.823s-6.6597 1.8002-9.8465 3.0974c-2.8486 1.1632-8.2337 4.176-8.2337 4.176s-7.3575-7.2409-13.717-13.508c-1.3717-1.3507-5.1424-0.99304-6.5142 0.35581-11.226 11.041-8.4502 7.9604-13.12 13.072-1.5209 1.6645-1.2512 5.1905 0.37305 6.7552 4.6106 4.4497 13.258 13.128 13.258 13.128s-3.4206 5.6223-4.6852 8.645c-1.2416 2.9712-2.8141 9.2382-2.8141 9.2382s-12.353-0.24478-18.532-0.14532c-2.3397 0.0364-5.2918 1.98-5.301 4.2298-0.01338 3.5697-0.06319 12.129-0.10909 17.111-0.04591 4.9817 2.774 6.761 5.3604 6.7474 7.572-0.0374 18.505 0.0864 18.505 0.0864s1.7409 6.3115 2.9787 9.3342c1.2148 2.9672 4.3446 8.584 4.3446 8.584s-8.5555 8.2244-12.632 12.814c-1.6299 1.8326-2.024 5.5194-0.38643 7.3442 4.3695 4.867 8.7641 9.0947 12.902 12.711 1.9839 1.7333 5.9172 0.82641 7.8399-0.97375 3.369-3.1546 12.123-12.433 12.123-12.433s5.6032 2.9825 8.5285 4.2031c1.5343 0.6409 3.8893 1.4558 5.8619 2.1119 1.9741 0.6563 3.5619 1.1517 3.5619 1.1517s-2e-3 2.9635 0 6.6901c2e-3 3.7285 7e-3 8.2204 0.0226 11.275 7e-3 1.2225 0.55475 2.6381 1.408 3.7497 0.85127 1.1134 2.0088 1.9208 3.2311 1.9322 5.8197 0.0459 12.353 0.0295 18.804-5e-3 1.0924-5e-3 2.2346-0.82274 3.1011-1.913 0.86661-1.0905 1.4597-2.4507 1.454-3.5432-0.0123-3.0073 7e-3 -7.7806 0.0282-11.802 0.0249-4.0214 0.052-7.2908 0.052-7.2908s1.5646-0.34819 3.4951-0.85538c1.9304-0.50676 4.2261-1.1745 5.6876-1.8097 1.3829-0.60055 3.3267-1.7579 4.9242-2.7662 1.5973-1.0083 2.8508-1.8652 2.8508-1.8652s2.5252 2.5501 5.5537 5.5767c3.0263 3.0247 6.5564 6.5235 8.5594 8.4194 0.88379 0.8378 2.1886 1.2778 3.5754 1.2129 1.3869-0.0648 2.8564-0.63727 4.075-1.8213 2.5556-2.4871 4.7233-4.5838 6.6616-6.4795 1.9375-1.8958 3.6479-3.5909 5.2856-5.2746 0.80365-0.82642 1.2626-2.1445 1.3203-3.4607 0.055-1.3182-0.29093-2.6343-1.0984-3.4588-2.2633-2.3148-5.8388-5.8848-8.8477-8.8767-3.0095-2.9903-5.4526-5.4045-5.4526-5.4045s0.86471-1.3124 1.8752-2.9864c1.0098-1.6758 2.1655-3.7133 2.7469-5.1615 0.5876-1.4616 1.1671-3.7496 1.5974-5.6743 0.43276-1.9244 0.71743-3.4838 0.71743-3.4838s13.562 0.31184 19.745 0.0939c2.2997-0.0798 5.1827-2.1657 5.2611-4.4649 0.23334-6.7646 0.24467-12.19 0.0693-18.295-0.10728-3.6924-2.6152-5.2057-6.4722-5.1726-5.0101 0.0445-18.293 0.22383-18.293 0.22383s-1.431-6.0705-2.5864-8.9532c-1.1842-2.9579-4.423-8.4753-4.423-8.4753s9.0012-8.9879 13.38-13.598c2.9864-3.1433 1.1383-6.9658 0.12262-7.886-4.2184-3.8226-8.5497-8.6206-12.135-12.02-1.7523-1.6645-5.4582-1.8461-7.2468-0.22019-3.6578 3.3252-8.7945 8.934-13.543 13.652 0 0-5.6532-3.283-8.6779-4.4919-2.8544-1.1423-8.8556-2.5772-8.8556-2.5772s0.22566-13.065 2e-3 -19.642c-0.0769-2.244-3.0667-4.4821-5.3089-4.5932-1.9763-0.0868-4.0941-0.12043-6.3114-0.12043zm-2.4372 52.07c16.887 0 30.577 13.69 30.577 30.577s-13.69 30.577-30.577 30.577-30.577-13.69-30.577-30.577 13.69-30.577 30.577-30.577z" fill-rule="evenodd" opacity=".3" stroke-width="2.8022"/><path d="m122.44 299.36c-3.6942-2e-3 -7.66 0.0882-11.676 0.17028-2.2401 0.0445-4.7273 2.5444-4.7215 4.7866 0.0151 5.9441 0.29677 18.823 0.29677 18.823s-6.6597 1.8002-9.8465 3.0974c-2.8486 1.1632-8.2337 4.176-8.2337 4.176s-7.3575-7.2409-13.717-13.508c-1.3717-1.3507-5.1424-0.99304-6.5142 0.35581-11.226 11.041-8.4502 7.9604-13.12 13.072-1.5209 1.6645-1.2512 5.1905 0.37305 6.7552 4.6106 4.4497 13.258 13.128 13.258 13.128s-3.4206 5.6223-4.6852 8.645c-1.2416 2.9712-2.8141 9.2382-2.8141 9.2382s-12.353-0.24478-18.532-0.14532c-2.3397 0.0364-5.2918 1.98-5.301 4.2298-0.01338 3.5697-0.06319 12.129-0.10909 17.111-0.04591 4.9817 2.774 6.761 5.3604 6.7474 7.572-0.0374 18.505 0.0864 18.505 0.0864s1.7409 6.3115 2.9787 9.3342c1.2148 2.9672 4.3446 8.584 4.3446 8.584s-8.5555 8.2244-12.632 12.814c-1.6299 1.8326-2.024 5.5194-0.38643 7.3442 4.3695 4.867 8.7641 9.0947 12.902 12.711 1.9839 1.7333 5.9172 0.82641 7.8399-0.97375 3.369-3.1546 12.123-12.433 12.123-12.433s5.6032 2.9825 8.5285 4.2031c1.5343 0.6409 3.8893 1.4558 5.8619 2.1119 1.9741 0.6563 3.5619 1.1517 3.5619 1.1517s-2e-3 2.9635 0 6.6901c2e-3 3.7285 7e-3 8.2204 0.0226 11.275 7e-3 1.2225 0.55475 2.6381 1.408 3.7497 0.85127 1.1134 2.0088 1.9208 3.2311 1.9322 5.8197 0.0459 12.353 0.0295 18.804-5e-3 1.0924-5e-3 2.2346-0.82274 3.1011-1.913 0.86661-1.0905 1.4597-2.4507 1.454-3.5432-0.0123-3.0073 7e-3 -7.7806 0.0282-11.802 0.0249-4.0214 0.052-7.2908 0.052-7.2908s1.5646-0.34819 3.4951-0.85538c1.9304-0.50676 4.2261-1.1745 5.6876-1.8097 1.3829-0.60055 3.3267-1.7579 4.9242-2.7662 1.5973-1.0083 2.8508-1.8652 2.8508-1.8652s2.5252 2.5501 5.5537 5.5767c3.0263 3.0247 6.5564 6.5235 8.5594 8.4194 0.88379 0.8378 2.1886 1.2778 3.5754 1.2129 1.3869-0.0648 2.8564-0.63727 4.075-1.8213 2.5556-2.4871 4.7233-4.5838 6.6616-6.4795 1.9375-1.8958 3.6479-3.5909 5.2856-5.2746 0.80365-0.82642 1.2626-2.1445 1.3203-3.4607 0.055-1.3182-0.29093-2.6343-1.0984-3.4588-2.2633-2.3148-5.8388-5.8848-8.8477-8.8767-3.0095-2.9903-5.4526-5.4045-5.4526-5.4045s0.86471-1.3124 1.8752-2.9864c1.0098-1.6758 2.1655-3.7133 2.7469-5.1615 0.5876-1.4616 1.1671-3.7496 1.5974-5.6743 0.43276-1.9244 0.71743-3.4838 0.71743-3.4838s13.562 0.31184 19.745 0.0939c2.2997-0.0798 5.1827-2.1657 5.2611-4.4649 0.23334-6.7646 0.24467-12.19 0.0693-18.295-0.10728-3.6924-2.6152-5.2057-6.4722-5.1726-5.0101 0.0445-18.293 0.22383-18.293 0.22383s-1.431-6.0705-2.5864-8.9532c-1.1842-2.9579-4.423-8.4753-4.423-8.4753s9.0012-8.9879 13.38-13.598c2.9864-3.1433 1.1383-6.9658 0.12262-7.886-4.2184-3.8226-8.5497-8.6206-12.135-12.02-1.7523-1.6645-5.4582-1.8461-7.2468-0.22019-3.6578 3.3252-8.7945 8.934-13.543 13.652 0 0-5.6532-3.283-8.6779-4.4919-2.8544-1.1423-8.8556-2.5772-8.8556-2.5772s0.22566-13.065 2e-3 -19.642c-0.0769-2.244-3.0667-4.4821-5.3089-4.5932-1.9763-0.0868-4.0941-0.12043-6.3114-0.12043zm-2.4372 52.07c16.887 0 30.577 13.69 30.577 30.577s-13.69 30.577-30.577 30.577-30.577-13.69-30.577-30.577 13.69-30.577 30.577-30.577z" fill="#fff" fill-rule="evenodd" stroke-width="2.8022"/><path d="m75.155 132.22c-29.422 0.0336-48.857 2.4022-49.018 2.4219-6.6e-4 8e-5 -0.11132 0.01-0.11132 0.01-1.9208 0.22095-1.6766 3.0824 0.2539 2.9746 0 0 106.98-5.0542 192.73 29.41 3.0595 13.089 11.139 33.152 15.912 43.816-6.4977 4.4595-13.468 8.9863-19.203 16.17-6.0198 7.5407-10.569 17.947-11.781 33.859-2.4573 32.277 25.225 60.533 59.463 61.404 31.749 1.6903 53.335 1.9234 79.613 15.543 12.272 6.7936 23.702 20.759 32.238 37.818 8.5411 17.068 14.208 37.205 15.225 56.195 0.0953 1.8662 2.8387 1.9003 2.9805 0.037 5e-3 -0.058-2e-3 -0.1372 2e-3 -0.1953 1.1026-14.541-1.0448-37.049-9.7617-58.461-7.3013-17.935-19.364-35.01-37.91-45.719 26.655 7.2789 41.914 20.807 50.686 33.168 10.065 14.183 11.551 26.806 11.543 26.736 0.21183 1.7846 2.8153 1.7434 2.9707-0.047 0 0 1.3231-15.473-9.3535-32.521-10.677-17.048-33.342-35.683-80.594-42.617-11.969-1.7561-27.074-3.1058-42.381-3.1445-8e-3 -6e-5 -0.0156-6e-5 -0.0234 0-37.042 0.48976-55.716-20.623-58.623-42.279-1.4537-10.828 1.0887-21.796 7.3789-30.295 6.2903-8.4988 16.301-14.584 30.094-15.662h6e-3c22.647-1.8687 50.269 10.379 77.432 23.018-0.027 3.1387 0.25112 6.3048 2.5449 9.1719 1.5359 1.9198 4.3068 3.2538 7.127 4.5859 2.8195 1.3318 5.7216 2.5388 6.873 3.1992 2.6176 1.5025 11.349 7.1032 16.496 13.803 0.66067 0.86123 1.9903 0.75224 2.502-0.20508 0.0267-0.05 0.80919-0.9524 1.8418-1.8164 1.0326-0.86401 2.3429-1.8488 3.6191-2.7676 2.5524-1.8375 4.9688-3.4121 4.9688-3.4121 1.2578-0.81978 0.65535-2.7746-0.8457-2.7441 0 0-0.36678 0.0207-1.5391-0.20313-1.1723-0.22385-3.0361-0.69459-5.6875-1.6855-2.4401-0.91186-5.355-2.8865-7.6035-4.6719-1.1243-0.89269-2.0919-1.7367-2.7754-2.3691-0.0817-0.0756-0.11608-0.11241-0.18945-0.18164 0.71444-0.64282 0.81228-1.6703 0.66797-2.3164-0.14752-0.66029-0.4352-1.1955-0.75782-1.7168-0.64468-1.0417-1.4644-1.9704-2.0312-2.5371l-2e-3 -2e-3c0.0821 0.0819-0.16776-0.20989-0.41992-0.57812-0.25313-0.36964-0.57883-0.86898-0.94532-1.4453-0.73297-1.1527-1.6317-2.6184-2.5058-4.0625-1.7483-2.8882-3.3259-5.5727-3.4785-5.8281-2e-3 -4e-3 -0.37979-0.7993-1.1133-1.2891-0.1154-0.0769-0.24096-0.13741-0.37305-0.17969-0.82802-0.26627-1.4844-0.20389-2.334-0.16015-0.84955 0.0437-1.7923 0.1437-2.6856 0.25781-1.4943 0.19089-2.4216 0.35926-2.8262 0.42969-1.0103-0.53287-8.9072-4.9072-11.809-13.82-0.53531-1.6348-2.955-1.2177-2.9121 0.50196 0.0158 0.58562-0.87006 2.3306-0.67774 4.9707-3.5086-2.1141-6.527-5.4732-9.1562-12.393-0.48274-1.276-2.2828-1.2899-2.7852-0.0215-1.0069 2.5321-1.0677 4.6507-0.86329 6.293-3.3327-1.5671-8.7895-5.0153-9.9785-11.869-0.25503-1.4664-2.2636-1.698-2.8457-0.32812-0.98011 2.3107-1.0671 4.2231-0.90235 5.7637-6.2107-2.6638-23.316-8.893-48.844-9.0312-4.927-0.4525-8.8427-2.918-12.059-6.6152-3.2163-3.6977-5.659-8.6263-7.3887-13.73-1.7297-5.1042-2.7521-10.38-3.2148-14.732-0.46272-4.3524-0.2681-7.9507 0.0547-8.9824 0.21555-0.6878-0.0909-1.4314-0.72852-1.7676 0 0-31.217-16.422-92.244-23.641-22.882-2.7067-44.211-3.5339-61.938-3.5137zm71.268 32.521c-9.2988 0.0701-19.28 0.41666-29.768 1.1621-56.026 3.9823-112.43 23.557-112.43 23.557-1.8043 0.62272-0.9969 3.3276 0.85352 2.8594 0 0 115.04-28.873 211.14-11.949 0.0851 0.0153 0.17136 0.0231 0.25781 0.0234h4e-3c1.0058-4.1e-4 1.7236-0.97485 1.4258-1.9356l-2.5117-8.1055c-0.16523-0.5344-0.61525-0.93165-1.166-1.0293 0 0-27.515-4.8845-67.803-4.582-4e-3 -2e-5 -8e-3 -2e-5 -0.0117 0zm68.311 17.264c-9.8882-0.0418-40.315 1.204-86.016 15.504-57.354 17.946-89.998 43.459-89.998 43.459-1.4384 1.1375 0.0432 3.3653 1.6484 2.4785 0 0 84.923-47.363 180.56-50.051 0.99906-0.0288 1.6884-1.0119 1.375-1.9609l-2.748-8.3184c-0.19067-0.57703-0.712-0.98095-1.3184-1.0215 0 0-1.2177-0.0802-3.5-0.0899zm62.531-0.13867c-1.4649 0.0214-2.0262 1.9197-0.8086 2.7344h2e-3c0.0877 0.0585 0.18128 0.10765 0.27929 0.14648 26.227 10.663 48.975 24.757 66.609 44.131 0.0159 0.0173 0.0321 0.0342 0.0488 0.0508l2e-3 2e-3c0.30389 0.30352 0.72375 0.4615 1.1523 0.43359l4.2793-0.2793c1.214-0.0799 1.8281-1.5003 1.0547-2.4394 0 0-24.778-30.028-72.021-44.662-5e-3 -2e-3 -0.0101-6e-3 -0.0156-8e-3 -0.0239-9e-3 -0.048-0.0175-0.0723-0.0254-0.0136-5e-3 -0.0273-9e-3 -0.041-0.0137-0.15151-0.0482-0.30975-0.072-0.46875-0.0703zm74.68 63.225c0.858 0.17286 2.4764 3.3569 3.9629 5.6309 0.1305 0.18477 0.26337 0.38161 0.38867 0.53711 0 0.0138 2e-3 0.0235 0.0117 0.0371 0.1679 0.23967 0.33529 0.48794 0.49609 0.6875 0.081 0.47558 0.21622 0.76606-0.89648 0.53711-0.094-0.48886-0.25391-0.63086-0.25391-0.63086s-2.6864-1.5969-3.5098-2.7305c-0.8241-1.1335-0.9681-3.1153-0.5664-3.8672 0.0971-0.16808 0.22119-0.22899 0.36719-0.20118z" opacity=".3" style="filter:url(#b)"/><g transform="translate(5.2278 -.00040366)" fill="#fff"><path d="m69.929 127.71c-29.464 0.0337-48.949 2.4206-48.949 2.4206s107.73-5.1706 194.03 29.769c2.9338 13.122 11.759 34.976 16.513 45.481-13.602 9.4041-28.94 18.249-31.328 49.612-2.3877 31.362 24.576 58.947 58.013 59.798 31.751 1.6913 53.688 1.9323 80.277 15.718 25.38 14.034 46.192 56.794 48.251 95.252 2.2244-28.534-8.4845-89.895-58.453-108.53 69.826 12.219 75.982 63.973 75.984 63.994 0 0 5.2056-59.754-88.677-73.531-11.899-1.7458-26.947-3.0899-42.168-3.1283-75.246 0.99487-77.989-86.786-21.288-91.218 23.499-1.9389 51.556 10.738 78.986 23.512-0.10182 3.4068 0.0405 6.4339 2.2787 9.2314 2.2375 2.7966 10.832 5.8474 13.579 7.4233 2.7464 1.5764 11.545 7.1715 16.937 14.189 1.1692-2.1872 10.933-8.5432 10.933-8.5432s-2.3391 0.0507-7.781-1.9832c-5.4426-2.0339-11.9-8.1876-12.053-8.5432-0.15246-0.35625-0.25501-0.91601 1.0169-1.1705 0.96572-0.81305-1.2209-3.4575-2.1873-4.4232-0.96572-0.96636-7.4247-11.95-7.5769-12.204-0.15245-0.25447-0.20376-0.50931-0.66105-0.81465-1.4244-0.45805-7.6799 0.66106-7.6799 0.66106s-9.6211-4.7252-12.937-14.913c0.0482 1.7844-1.6497 3.734 0 7.8335-5.0162-2.122-9.325-5.7416-12.723-14.685-2.0227 5.0868 0 8.3215 0 8.3215s-11.811-3.3016-13.701-14.195c-2.0742 4.8902 0 7.8316 0 7.8316s-19.258-10.048-51.255-10.194c-21.422-1.965-25.882-39.65-23.897-45.994 0 0-30.899-16.285-91.723-23.479-22.809-2.6982-44.081-3.5238-61.76-3.5036zm71.276 32.521c-9.2697 0.0699-19.22 0.41577-29.674 1.1588-55.751 3.9628-112.04 23.477-112.04 23.477s115.18-28.98 211.77-11.971h2e-3l-2.512-8.1057s-27.374-4.862-67.542-4.5594zm68.293 17.263c-9.75-0.0412-40.02 1.1848-85.564 15.436-57.124 17.874-89.522 43.21-89.522 43.21s85.141-47.539 181.24-50.24l-2.7492-8.3176s-1.1564-0.0779-3.4064-0.0875zm62.559-0.13932c26.38 10.723 49.34 24.931 67.165 44.514l2e-3 2e-3 4.2794-0.27998s-24.518-29.746-71.447-44.236zm72.712 57.183 5.2496 3.8672c0.65793-1.1408 3.31 6.0651 4.9229 8.0668 0.0683 0.3997-2.6812 3.6124-3.6164 3.42-0.0787-0.41087-4.3494-1.6449-4.3494-1.6449s-4.853-2.932-5.5451-3.8847c-0.6926-0.9527 3.0007-9.1925 3.3383-9.8244z" stroke="#fff" stroke-linejoin="round" stroke-width="2.9864"/><path d="m69.929 127.71c-29.464 0.0337-48.949 2.4206-48.949 2.4206s107.73-5.1706 194.03 29.769c2.9338 13.122 11.759 34.976 16.513 45.481-13.602 9.4041-28.94 18.249-31.328 49.612-2.3877 31.362 24.576 58.947 58.013 59.798 31.751 1.6913 53.688 1.9323 80.277 15.718 25.38 14.034 46.192 56.794 48.251 95.252 2.2244-28.534-8.4845-89.895-58.453-108.53 69.826 12.219 75.982 63.973 75.984 63.994 0 0 5.2056-59.754-88.677-73.531-11.899-1.7458-26.947-3.0899-42.168-3.1283-75.246 0.99487-77.989-86.786-21.288-91.218 23.499-1.9389 51.556 10.738 78.986 23.512-0.10182 3.4068 0.0404 6.4339 2.2787 9.2314 2.2375 2.7966 10.832 5.8474 13.579 7.4233 2.7464 1.5764 11.545 7.1715 16.937 14.189 1.1692-2.1872 10.933-8.5432 10.933-8.5432s-2.3391 0.0507-7.781-1.9832c-5.4426-2.0339-11.9-8.1876-12.053-8.5432-0.15246-0.35625-0.25501-0.91601 1.0169-1.1705 0.96572-0.81305-1.2209-3.4575-2.1873-4.4232-0.96572-0.96636-7.4247-11.95-7.5769-12.204-0.15245-0.25447-0.20376-0.50931-0.66105-0.81465-1.4244-0.45805-7.6799 0.66106-7.6799 0.66106s-9.6211-4.7252-12.937-14.913c0.0482 1.7844-1.6497 3.734 0 7.8335-5.0162-2.122-9.325-5.7416-12.723-14.685-2.0227 5.0868 0 8.3215 0 8.3215s-11.811-3.3016-13.701-14.195c-2.0742 4.8902 0 7.8316 0 7.8316s-19.258-10.048-51.255-10.194c-21.422-1.965-25.882-39.65-23.897-45.994 0 0-30.899-16.285-91.723-23.479-22.809-2.6982-44.081-3.5238-61.76-3.5036zm71.276 32.521c-9.2697 0.0699-19.22 0.41577-29.674 1.1588-55.751 3.9628-112.04 23.477-112.04 23.477s115.18-28.98 211.77-11.971h2e-3l-2.512-8.1057s-27.373-4.5594-67.542-4.5594zm68.293 17.263c-9.75-0.0412-40.02 1.1848-85.564 15.436-57.124 17.874-89.522 43.21-89.522 43.21s85.141-47.539 181.24-50.24l-2.7492-8.3176s-1.1564-0.0779-3.4064-0.0875zm62.559-0.13932c26.38 10.723 49.34 24.931 67.165 44.514l2e-3 2e-3 4.2794-0.27998s-24.518-29.746-71.446-44.236zm74.662 61.731c0.85796 0.17286 2.4779 3.3567 3.9644 5.6306 0.13054 0.18477 0.26356 0.38112 0.38886 0.53662 2e-3 0.0138 3e-3 0.0234 6e-3 0.037 0.16796 0.23967 0.33693 0.4887 0.49774 0.68826 0.0812 0.47558 0.21641 0.76558-0.89631 0.53663-0.0936-0.48886-0.25471-0.62995-0.25471-0.62995s-2.686-1.5982-3.5094-2.7317c-0.82408-1.1335-0.96948-3.1153-0.56774-3.8672 0.0978-0.16967 0.2236-0.23004 0.37137-0.20027z"/></g></svg>
